<svg xmlns="http://www.w3.org/2000/svg" viewBox="0 0 160 160">
  <path d="M14 132C50 104 92 70 148 22" fill="none" stroke="#5B3A1E" stroke-width="5" stroke-linecap="round"/>
  <g fill="#2F5B3F">
    <path d="M44 108C30 86 34 62 52 46C60 70 58 92 44 108Z"/>
    <path d="M48 106C70 108 92 100 104 82C80 80 62 88 48 106Z"/>
    <path d="M100 62C92 40 98 20 116 8C122 30 116 48 100 62Z"/>
    <path d="M104 60C124 64 142 58 152 42C132 38 116 44 104 60Z"/>
  </g>
  <g fill="#C2532F">
    <circle cx="70" cy="98" r="9"/><circle cx="82" cy="104" r="9"/><circle cx="72" cy="114" r="9"/>
    <circle cx="122" cy="58" r="8"/><circle cx="130" cy="68" r="8"/>
  </g>
  <g fill="#8A3418">
    <circle cx="86" cy="88" r="9"/><circle cx="116" cy="70" r="8"/>
  </g>
  <g fill="#FBF7F0"><circle cx="67" cy="95" r="2.4"/><circle cx="79" cy="101" r="2.4"/><circle cx="69" cy="111" r="2.4"/><circle cx="119" cy="55" r="2.2"/><circle cx="127" cy="65" r="2.2"/></g>
</svg>
